<?xml version="1.0" encoding="UTF-8" standalone="no"?>
<svg
   xmlns:dc="http://purl.org/dc/elements/1.1/"
   xmlns:cc="http://creativecommons.org/ns#"
   xmlns:rdf="http://www.w3.org/1999/02/22-rdf-syntax-ns#"
   xmlns:svg="http://www.w3.org/2000/svg"
   xmlns="http://www.w3.org/2000/svg"
   version="1.1"
   id="svg4244"
   viewBox="0 0 32 32.000001"
   height="32"
   width="32">
  <defs
     id="defs4246" />
  <metadata
     id="metadata4249">
    <rdf:RDF>
      <cc:Work
         rdf:about="">
        <dc:format>image/svg+xml</dc:format>
        <dc:type
           rdf:resource="http://purl.org/dc/dcmitype/StillImage" />
        <dc:title />
      </cc:Work>
    </rdf:RDF>
  </metadata>
  <g
     transform="translate(0,-1020.3622)"
     id="layer1">
    <g
       id="g4373">
      <path
         style="color:#000000;font-style:normal;font-variant:normal;font-weight:normal;font-stretch:normal;font-size:medium;line-height:normal;font-family:sans-serif;text-indent:0;text-align:start;text-decoration:none;text-decoration-line:none;text-decoration-style:solid;text-decoration-color:#000000;letter-spacing:normal;word-spacing:normal;text-transform:none;direction:ltr;block-progression:tb;writing-mode:lr-tb;baseline-shift:baseline;text-anchor:start;white-space:normal;clip-rule:nonzero;display:inline;overflow:visible;visibility:visible;opacity:1;isolation:auto;mix-blend-mode:normal;color-interpolation:sRGB;color-interpolation-filters:linearRGB;solid-color:#000000;solid-opacity:1;fill:#d8d7dc;fill-opacity:1;fill-rule:evenodd;stroke:none;stroke-width:1.99999988;stroke-linecap:round;stroke-linejoin:round;stroke-miterlimit:4;stroke-dasharray:none;stroke-dashoffset:0;stroke-opacity:1;color-rendering:auto;image-rendering:auto;shape-rendering:auto;text-rendering:auto;enable-background:accumulate"
         d="M 15.984375,1022.3613 A 1.0000999,1.0000999 0 0 0 15,1023.377 l 0,25.9707 a 1.0000999,1.0000999 0 1 0 2,0 l 0,-25.9707 a 1.0000999,1.0000999 0 0 0 -1.015625,-1.0157 z"
         id="path4329" />
      <path
         style="color:#000000;font-style:normal;font-variant:normal;font-weight:normal;font-stretch:normal;font-size:medium;line-height:normal;font-family:sans-serif;text-indent:0;text-align:start;text-decoration:none;text-decoration-line:none;text-decoration-style:solid;text-decoration-color:#000000;letter-spacing:normal;word-spacing:normal;text-transform:none;direction:ltr;block-progression:tb;writing-mode:lr-tb;baseline-shift:baseline;text-anchor:start;white-space:normal;clip-rule:nonzero;display:inline;overflow:visible;visibility:visible;opacity:1;isolation:auto;mix-blend-mode:normal;color-interpolation:sRGB;color-interpolation-filters:linearRGB;solid-color:#000000;solid-opacity:1;fill:#d8d7dc;fill-opacity:1;fill-rule:evenodd;stroke:none;stroke-width:1.99999988;stroke-linecap:round;stroke-linejoin:round;stroke-miterlimit:4;stroke-dasharray:none;stroke-dashoffset:0;stroke-opacity:1;color-rendering:auto;image-rendering:auto;shape-rendering:auto;text-rendering:auto;enable-background:accumulate"
         d="m 13.017578,1023.3691 a 1.0000999,1.0000999 0 0 0 -0.552734,1.8379 l 2.976562,2 a 1.0000999,1.0000999 0 0 0 1.117188,0 l 2.976562,-2 a 1.0005047,1.0005047 0 1 0 -1.117187,-1.6601 L 16,1025.1719 l -2.417969,-1.625 a 1.0000999,1.0000999 0 0 0 -0.564453,-0.1778 z"
         id="path4331" />
      <path
         style="color:#000000;font-style:normal;font-variant:normal;font-weight:normal;font-stretch:normal;font-size:medium;line-height:normal;font-family:sans-serif;text-indent:0;text-align:start;text-decoration:none;text-decoration-line:none;text-decoration-style:solid;text-decoration-color:#000000;letter-spacing:normal;word-spacing:normal;text-transform:none;direction:ltr;block-progression:tb;writing-mode:lr-tb;baseline-shift:baseline;text-anchor:start;white-space:normal;clip-rule:nonzero;display:inline;overflow:visible;visibility:visible;opacity:1;isolation:auto;mix-blend-mode:normal;color-interpolation:sRGB;color-interpolation-filters:linearRGB;solid-color:#000000;solid-opacity:1;fill:#d8d7dc;fill-opacity:1;fill-rule:evenodd;stroke:none;stroke-width:1.99999988;stroke-linecap:round;stroke-linejoin:round;stroke-miterlimit:4;stroke-dasharray:none;stroke-dashoffset:0;stroke-opacity:1;color-rendering:auto;image-rendering:auto;shape-rendering:auto;text-rendering:auto;enable-background:accumulate"
         d="m 15.992188,1045.3398 a 1.0000999,1.0000999 0 0 0 -0.550782,0.17 l -2.976562,2.0019 a 1.0005462,1.0005462 0 1 0 1.117187,1.6602 L 16,1047.5449 l 2.417969,1.627 a 1.0005462,1.0005462 0 1 0 1.117187,-1.6602 l -2.976562,-2.0019 a 1.0000999,1.0000999 0 0 0 -0.566406,-0.17 z"
         id="path4333" />
      <path
         style="color:#000000;font-style:normal;font-variant:normal;font-weight:normal;font-stretch:normal;font-size:medium;line-height:normal;font-family:sans-serif;text-indent:0;text-align:start;text-decoration:none;text-decoration-line:none;text-decoration-style:solid;text-decoration-color:#000000;letter-spacing:normal;word-spacing:normal;text-transform:none;direction:ltr;block-progression:tb;writing-mode:lr-tb;baseline-shift:baseline;text-anchor:start;white-space:normal;clip-rule:nonzero;display:inline;overflow:visible;visibility:visible;opacity:1;isolation:auto;mix-blend-mode:normal;color-interpolation:sRGB;color-interpolation-filters:linearRGB;solid-color:#000000;solid-opacity:1;fill:#d8d7dc;fill-opacity:1;fill-rule:evenodd;stroke:none;stroke-width:1.99999988;stroke-linecap:round;stroke-linejoin:round;stroke-miterlimit:4;stroke-dasharray:none;stroke-dashoffset:0;stroke-opacity:1;color-rendering:auto;image-rendering:auto;shape-rendering:auto;text-rendering:auto;enable-background:accumulate"
         d="m 27.289062,1028.8691 a 1.0000999,1.0000999 0 0 0 -0.542968,0.1407 l -22.4921878,12.9863 a 1.0000999,1.0000999 0 1 0 1,1.7305 l 22.4921878,-12.9844 a 1.0000999,1.0000999 0 0 0 -0.457032,-1.8731 z"
         id="path4337" />
      <path
         style="color:#000000;font-style:normal;font-variant:normal;font-weight:normal;font-stretch:normal;font-size:medium;line-height:normal;font-family:sans-serif;text-indent:0;text-align:start;text-decoration:none;text-decoration-line:none;text-decoration-style:solid;text-decoration-color:#000000;letter-spacing:normal;word-spacing:normal;text-transform:none;direction:ltr;block-progression:tb;writing-mode:lr-tb;baseline-shift:baseline;text-anchor:start;white-space:normal;clip-rule:nonzero;display:inline;overflow:visible;visibility:visible;opacity:1;isolation:auto;mix-blend-mode:normal;color-interpolation:sRGB;color-interpolation-filters:linearRGB;solid-color:#000000;solid-opacity:1;fill:#d8d7dc;fill-opacity:1;fill-rule:evenodd;stroke:none;stroke-width:1.99999988;stroke-linecap:round;stroke-linejoin:round;stroke-miterlimit:4;stroke-dasharray:none;stroke-dashoffset:0;stroke-opacity:1;color-rendering:auto;image-rendering:auto;shape-rendering:auto;text-rendering:auto;enable-background:accumulate"
         d="m 24.841797,1026.7793 a 1.0000999,1.0000999 0 0 0 -0.951172,0.9453 l -0.244141,3.5781 a 1.0000999,1.0000999 0 0 0 0.558594,0.9668 l 3.220703,1.5782 a 1.0001659,1.0001659 0 1 0 0.878907,-1.7969 l -2.617188,-1.2813 0.199219,-2.9082 a 1.0000999,1.0000999 0 0 0 -1.044922,-1.082 z"
         id="path4339" />
      <path
         style="color:#000000;font-style:normal;font-variant:normal;font-weight:normal;font-stretch:normal;font-size:medium;line-height:normal;font-family:sans-serif;text-indent:0;text-align:start;text-decoration:none;text-decoration-line:none;text-decoration-style:solid;text-decoration-color:#000000;letter-spacing:normal;word-spacing:normal;text-transform:none;direction:ltr;block-progression:tb;writing-mode:lr-tb;baseline-shift:baseline;text-anchor:start;white-space:normal;clip-rule:nonzero;display:inline;overflow:visible;visibility:visible;opacity:1;isolation:auto;mix-blend-mode:normal;color-interpolation:sRGB;color-interpolation-filters:linearRGB;solid-color:#000000;solid-opacity:1;fill:#d8d7dc;fill-opacity:1;fill-rule:evenodd;stroke:none;stroke-width:1.99999988;stroke-linecap:round;stroke-linejoin:round;stroke-miterlimit:4;stroke-dasharray:none;stroke-dashoffset:0;stroke-opacity:1;color-rendering:auto;image-rendering:auto;shape-rendering:auto;text-rendering:auto;enable-background:accumulate"
         d="m 4.0917969,1038.7695 a 1.0000999,1.0000999 0 0 0 -0.3964844,1.9043 l 2.6171875,1.2813 -0.1992188,2.9082 A 1.0003846,1.0003846 0 1 0 8.109375,1045 l 0.2441406,-3.5781 a 1.0000999,1.0000999 0 0 0 -0.5585937,-0.9668 l -3.2207031,-1.5781 a 1.0000999,1.0000999 0 0 0 -0.4824219,-0.1075 z"
         id="path4341" />
      <path
         style="color:#000000;font-style:normal;font-variant:normal;font-weight:normal;font-stretch:normal;font-size:medium;line-height:normal;font-family:sans-serif;text-indent:0;text-align:start;text-decoration:none;text-decoration-line:none;text-decoration-style:solid;text-decoration-color:#000000;letter-spacing:normal;word-spacing:normal;text-transform:none;direction:ltr;block-progression:tb;writing-mode:lr-tb;baseline-shift:baseline;text-anchor:start;white-space:normal;clip-rule:nonzero;display:inline;overflow:visible;visibility:visible;opacity:1;isolation:auto;mix-blend-mode:normal;color-interpolation:sRGB;color-interpolation-filters:linearRGB;solid-color:#000000;solid-opacity:1;fill:#d8d7dc;fill-opacity:1;fill-rule:evenodd;stroke:none;stroke-width:1.99999988;stroke-linecap:round;stroke-linejoin:round;stroke-miterlimit:4;stroke-dasharray:none;stroke-dashoffset:0;stroke-opacity:1;color-rendering:auto;image-rendering:auto;shape-rendering:auto;text-rendering:auto;enable-background:accumulate"
         d="m 4.6796875,1028.8574 a 1.0000999,1.0000999 0 0 0 -0.4257813,1.8711 l 22.4921878,12.9863 a 1.0001512,1.0001512 0 1 0 1,-1.7324 L 5.2539062,1028.9961 a 1.0000999,1.0000999 0 0 0 -0.5742187,-0.1387 z"
         id="path4345" />
      <path
         style="color:#000000;font-style:normal;font-variant:normal;font-weight:normal;font-stretch:normal;font-size:medium;line-height:normal;font-family:sans-serif;text-indent:0;text-align:start;text-decoration:none;text-decoration-line:none;text-decoration-style:solid;text-decoration-color:#000000;letter-spacing:normal;word-spacing:normal;text-transform:none;direction:ltr;block-progression:tb;writing-mode:lr-tb;baseline-shift:baseline;text-anchor:start;white-space:normal;clip-rule:nonzero;display:inline;overflow:visible;visibility:visible;opacity:1;isolation:auto;mix-blend-mode:normal;color-interpolation:sRGB;color-interpolation-filters:linearRGB;solid-color:#000000;solid-opacity:1;fill:#d8d7dc;fill-opacity:1;fill-rule:evenodd;stroke:none;stroke-width:1.99999988;stroke-linecap:round;stroke-linejoin:round;stroke-miterlimit:4;stroke-dasharray:none;stroke-dashoffset:0;stroke-opacity:1;color-rendering:auto;image-rendering:auto;shape-rendering:auto;text-rendering:auto;enable-background:accumulate"
         d="m 27.878906,1038.7695 a 1.0000999,1.0000999 0 0 0 -0.453125,0.1075 l -3.220703,1.5781 a 1.0000999,1.0000999 0 0 0 -0.558594,0.9668 L 23.890625,1045 a 1.0003847,1.0003847 0 1 0 1.996094,-0.1367 l -0.199219,-2.9082 2.617188,-1.2813 a 1.0000999,1.0000999 0 0 0 -0.425782,-1.9043 z"
         id="path4347" />
      <path
         style="color:#000000;font-style:normal;font-variant:normal;font-weight:normal;font-stretch:normal;font-size:medium;line-height:normal;font-family:sans-serif;text-indent:0;text-align:start;text-decoration:none;text-decoration-line:none;text-decoration-style:solid;text-decoration-color:#000000;letter-spacing:normal;word-spacing:normal;text-transform:none;direction:ltr;block-progression:tb;writing-mode:lr-tb;baseline-shift:baseline;text-anchor:start;white-space:normal;clip-rule:nonzero;display:inline;overflow:visible;visibility:visible;opacity:1;isolation:auto;mix-blend-mode:normal;color-interpolation:sRGB;color-interpolation-filters:linearRGB;solid-color:#000000;solid-opacity:1;fill:#d8d7dc;fill-opacity:1;fill-rule:evenodd;stroke:none;stroke-width:1.99999988;stroke-linecap:round;stroke-linejoin:round;stroke-miterlimit:4;stroke-dasharray:none;stroke-dashoffset:0;stroke-opacity:1;color-rendering:auto;image-rendering:auto;shape-rendering:auto;text-rendering:auto;enable-background:accumulate"
         d="m 7.1269531,1026.7793 a 1.0000999,1.0000999 0 0 0 -1.0136719,1.082 l 0.1992188,2.9082 -2.6171875,1.2813 a 1.0001657,1.0001657 0 1 0 0.8789063,1.7969 l 3.2207031,-1.5782 a 1.0000999,1.0000999 0 0 0 0.5585937,-0.9668 l -0.2441406,-3.5781 a 1.0000999,1.0000999 0 0 0 -0.9824219,-0.9453 z"
         id="path4349" />
      <path
         style="color:#000000;font-style:normal;font-variant:normal;font-weight:normal;font-stretch:normal;font-size:medium;line-height:normal;font-family:sans-serif;text-indent:0;text-align:start;text-decoration:none;text-decoration-line:none;text-decoration-style:solid;text-decoration-color:#000000;letter-spacing:normal;word-spacing:normal;text-transform:none;direction:ltr;block-progression:tb;writing-mode:lr-tb;baseline-shift:baseline;text-anchor:start;white-space:normal;clip-rule:nonzero;display:inline;overflow:visible;visibility:visible;opacity:1;isolation:auto;mix-blend-mode:normal;color-interpolation:sRGB;color-interpolation-filters:linearRGB;solid-color:#000000;solid-opacity:1;fill:#d8d7dc;fill-opacity:1;fill-rule:nonzero;stroke:none;stroke-width:1.04948652;stroke-linecap:round;stroke-linejoin:round;stroke-miterlimit:4;stroke-dasharray:none;stroke-dashoffset:0;stroke-opacity:1;color-rendering:auto;image-rendering:auto;shape-rendering:auto;text-rendering:auto;enable-background:accumulate"
         d="m 20.324084,1028.4113 a 1.0014617,0.99874015 0 0 0 -0.866887,0.1531 l -3.456419,2.5243 -3.458042,-2.5249 a 1.0014617,0.99874015 0 0 0 -1.584948,0.9156 l 0.46091,4.2445 -3.920288,1.7232 a 1.0014617,0.99874015 0 0 0 0.00262,1.8285 l 3.9199411,1.7249 -0.465798,4.2468 a 1.0014617,0.99874015 0 0 0 1.587524,0.9131 l 3.45642,-2.5243 3.458041,2.5249 a 1.0014617,0.99874015 0 0 0 1.584949,-0.9157 l -0.46091,-4.2445 3.920287,-1.7231 a 1.0014617,0.99874015 0 0 0 -0.0026,-1.8285 l -3.919941,-1.7249 0.465799,-4.2469 a 1.0014617,0.99874015 0 0 0 -0.720638,-1.0661 z m -1.517009,3.1042 -0.299065,2.7215 a 1.0014617,0.99874015 0 0 0 0.593947,1.0207 l 2.511889,1.1061 -2.511183,1.1029 a 1.0014617,0.99874015 0 0 0 -0.591353,1.0234 l 0.298516,2.7234 -2.219318,-1.6205 a 1.0014617,0.99874015 0 0 0 -1.180712,-10e-5 l -2.216972,1.6164 0.299064,-2.7216 a 1.0014617,0.99874015 0 0 0 -0.593996,-1.0205 l -2.511839,-1.1062 2.511133,-1.1028 a 1.0014617,0.99874015 0 0 0 0.591403,-1.0235 l -0.298517,-2.7234 2.219318,1.6205 a 1.0014617,0.99874015 0 0 0 1.180712,10e-5 l 2.216973,-1.6164 z"
         id="path4351" />
    </g>
  </g>
</svg>
